{"asset":{"version":"2.0","generator":"SMILE 2.0 deterministic GLB fixture generator"},"scene":0,"scenes":[{"nodes":[0]}],"nodes":[{"name":"M0Triangle","mesh":0}],"meshes":[{"name":"M0Triangle","primitives":[{"attributes":{"POSITION":0,"NORMAL":1,"TEXCOORD_0":2},"indices":3,"material":0,"mode":4}]}],"materials":[{"name":"M0Material","pbrMetallicRoughness":{"baseColorFactor":[0.25,0.5,1,1],"metallicFactor":0.2,"roughnessFactor":0.7}}],"buffers":[{"byteLength":104,"uri":"data:application/octet-stream;base64,"}],"bufferViews":[{"buffer":0,"byteOffset":0,"byteLength":36,"target":34962},{"buffer":0,"byteOffset":36,"byteLength":36,"target":34962},{"buffer":0,"byteOffset":72,"byteLength":24,"target":34962},{"buffer":0,"byteOffset":96,"byteLength":6,"target":34963}],"accessors":[{"bufferView":0,"componentType":5126,"count":3,"type":"VEC3","min":[-1,0,0],"max":[1,1,0]},{"bufferView":1,"componentType":5126,"count":3,"type":"VEC3"},{"bufferView":2,"componentType":5126,"count":3,"type":"VEC2"},{"bufferView":3,"componentType":5123,"count":3,"type":"SCALAR","min":[0],"max":[2]}]}
