{"asset":{"version":"2.0","generator":"SMILE 2.0 M1 PBR-metadata fixture"},"scene":0,"scenes":[{"nodes":[0]}],"nodes":[{"name":"PbrTriangle","mesh":0}],"meshes":[{"name":"PbrMesh","primitives":[{"attributes":{"POSITION":0,"NORMAL":1,"TEXCOORD_0":2,"TANGENT":4},"indices":3,"material":0,"mode":4}]}],"materials":[{"name":"PbrMaterial","doubleSided":true,"alphaMode":"MASK","alphaCutoff":0.375,"emissiveFactor":[0.1,0.2,0.3],"pbrMetallicRoughness":{"baseColorFactor":[0.2,0.4,0.6,0.8],"metallicFactor":0.35,"roughnessFactor":0.65,"baseColorTexture":{"index":0},"metallicRoughnessTexture":{"index":2}},"normalTexture":{"index":1,"scale":0.75},"occlusionTexture":{"index":2,"strength":0.5},"emissiveTexture":{"index":3}}],"textures":[{"source":0},{"source":1},{"source":2},{"source":3}],"images":[{"uri":"Assets/Textures/Pbr-base-color.png"},{"uri":"Assets/Textures/Pbr-normal.png"},{"uri":"Assets/Textures/Pbr-orm.png"},{"uri":"Assets/Textures/Pbr-emissive.png"}],"buffers":[{"byteLength":152,"uri":"data:application/octet-stream;base64,"}],"bufferViews":[{"buffer":0,"byteOffset":0,"byteLength":36,"target":34962},{"buffer":0,"byteOffset":36,"byteLength":36,"target":34962},{"buffer":0,"byteOffset":72,"byteLength":24,"target":34962},{"buffer":0,"byteOffset":96,"byteLength":6,"target":34963},{"buffer":0,"byteOffset":104,"byteLength":48,"target":34962}],"accessors":[{"bufferView":0,"componentType":5126,"count":3,"type":"VEC3","min":[-1,0,0],"max":[1,1,0]},{"bufferView":1,"componentType":5126,"count":3,"type":"VEC3"},{"bufferView":2,"componentType":5126,"count":3,"type":"VEC2"},{"bufferView":3,"componentType":5123,"count":3,"type":"SCALAR","min":[0],"max":[2]},{"bufferView":4,"componentType":5126,"count":3,"type":"VEC4"}]}
